HIERARCHY
ROOT hip
{
	OFFSET 0.000000 0.000000 0.000000
	CHANNELS 6 Xposition Yposition Zposition Zrotation Yrotation Xrotation 
	JOINT lhipjoint
	{
		OFFSET 0.000000 0.000000 0.000000
		CHANNELS 3 Zrotation Yrotation Xrotation
		JOINT lfemur
		{
			OFFSET 1.363060 -1.794630 0.839290
			CHANNELS 3 Zrotation Yrotation Xrotation
			JOINT ltibia
			{
				OFFSET 2.448110 -6.726130 0.000000
				CHANNELS 3 Zrotation Yrotation Xrotation
				JOINT lfoot
				{
					OFFSET 2.562200 -7.039590 0.000000
					CHANNELS 3 Zrotation Yrotation Xrotation
					JOINT ltoes
					{
						OFFSET 0.157640 -0.433110 2.322550
						CHANNELS 3 Zrotation Yrotation Xrotation
						End Site
						{
							OFFSET 0.000000 0.000000 0.000000
						}
					}
				}
			}
		}
	}
	JOINT rhipjoint
	{
		OFFSET 0.000000 0.000000 0.000000
		CHANNELS 3 Zrotation Yrotation Xrotation
		JOINT rfemur
		{
			OFFSET -1.305520 -1.794630 0.839290
			CHANNELS 3 Zrotation Yrotation Xrotation
			JOINT rtibia
			{
				OFFSET -2.542530 -6.985550 0.000000
				CHANNELS 3 Zrotation Yrotation Xrotation
				JOINT rfoot
				{
					OFFSET -2.568260 -7.056230 0.000000
					CHANNELS 3 Zrotation Yrotation Xrotation
					JOINT rtoes
					{
						OFFSET -0.164730 -0.452590 2.363150
						CHANNELS 3 Zrotation Yrotation Xrotation
						End Site
						{
							OFFSET 0.000000 0.000000 0.000000
						}
					}
				}
			}
		}
	}
	JOINT lowerback
	{
		OFFSET 0.000000 0.000000 0.000000
		CHANNELS 3 Zrotation Yrotation Xrotation
		JOINT upperback
		{
			OFFSET 0.028270 2.035590 -0.193380
			CHANNELS 3 Zrotation Yrotation Xrotation
			JOINT thorax
			{
				OFFSET 0.056720 2.048850 -0.042750
				CHANNELS 3 Zrotation Yrotation Xrotation
				JOINT lowerneck
				{
					OFFSET 0.000000 0.000000 0.000000
					CHANNELS 3 Zrotation Yrotation Xrotation
					JOINT upperneck
					{
						OFFSET -0.054170 1.746240 0.172020
						CHANNELS 3 Zrotation Yrotation Xrotation
						JOINT head
						{
							OFFSET 0.104070 1.761360 -0.123970
							CHANNELS 3 Zrotation Yrotation Xrotation
							End Site
							{
								OFFSET 0.000000 0.000000 0.000000
							}
						}
					}
				}
				JOINT lclavicle
				{
					OFFSET 0.000000 0.000000 0.000000
					CHANNELS 3 Zrotation Yrotation Xrotation
					JOINT lhumerus
					{
						OFFSET 3.362410 1.200890 -0.311210
						CHANNELS 3 Zrotation Yrotation Xrotation
						JOINT lradius
						{
							OFFSET 4.983000 -0.000000 -0.000000
							CHANNELS 3 Zrotation Yrotation Xrotation
							JOINT lwrist
							{
								OFFSET 3.483560 -0.000000 -0.000000
								CHANNELS 3 Zrotation Yrotation Xrotation
								JOINT lhand
								{
									OFFSET 0.000000 0.000000 0.000000
									CHANNELS 3 Zrotation Yrotation Xrotation
									JOINT lfingers
									{
										OFFSET 0.715260 -0.000000 -0.000000
										CHANNELS 3 Zrotation Yrotation Xrotation
										End Site
										{
											OFFSET 0.000000 0.000000 0.000000
										}
									}
								}
								JOINT lthumb
								{
									OFFSET 0.000000 0.000000 0.000000
									CHANNELS 3 Zrotation Yrotation Xrotation
									End Site
									{
										OFFSET 0.000000 0.000000 0.000000
									}
								}
							}
						}
					}
				}
				JOINT rclavicle
				{
					OFFSET 0.000000 0.000000 0.000000
					CHANNELS 3 Zrotation Yrotation Xrotation
					JOINT rhumerus
					{
						OFFSET -3.136600 1.374050 -0.404650
						CHANNELS 3 Zrotation Yrotation Xrotation
						JOINT rradius
						{
							OFFSET -5.241900 -0.000000 -0.000000
							CHANNELS 3 Zrotation Yrotation Xrotation
							JOINT rwrist
							{
								OFFSET -3.444170 -0.000000 -0.000000
								CHANNELS 3 Zrotation Yrotation Xrotation
								JOINT rhand
								{
									OFFSET 0.000000 0.000000 0.000000
									CHANNELS 3 Zrotation Yrotation Xrotation
									JOINT rfingers
									{
										OFFSET -0.622530 -0.000000 -0.000000
										CHANNELS 3 Zrotation Yrotation Xrotation
										End Site
										{
											OFFSET 0.000000 0.000000 0.000000
										}
									}
								}
								JOINT rthumb
								{
									OFFSET 0.000000 0.000000 0.000000
									CHANNELS 3 Zrotation Yrotation Xrotation
									End Site
									{
										OFFSET 0.000000 0.000000 0.000000
									}
								}
							}
						}
					}
				}
			}
		}
	}
}
MOTION
Frames: 10
Frame Time: 0.008333
0.767864 17.076821 2.166716 -177.144359 -8.054850 -176.740274 -4.884417 -3.544101 -0.457009 -12.632262 13.263691 -18.416634 3.831011 11.716382 32.665720 -1.189171 -24.335395 -3.924078 0.569900 4.834900 13.438200 2.162836 3.724554 -2.397939 18.031532 -14.918323 -16.235138 -4.677360 -12.330353 33.414845 -0.145429 18.287324 -7.753656 -0.297900 3.509500 -9.700600 10.875853 -1.070304 -10.168615 2.965285 -3.573905 -5.160298 -2.719096 -1.997344 10.792863 0.160480 0.374172 -14.497982 -5.528808 2.744019 24.156336 -3.889200 1.064100 7.707000 -5.066662 -2.065576 2.510596 -66.914273 4.692864 53.147984 29.118582 -41.580277 -10.398788 0.261037 1.625993 -3.109384 24.764759 -19.759798 -9.494700 -7.125000 0.000000 0.000000 -2.708100 6.503600 2.386700 7.459439 3.821921 3.751049 66.163646 10.903193 3.925861 -7.772655 25.201065 -2.303970 -0.399898 -0.957808 19.226946 -13.466621 11.200227 -2.899700 7.125000 0.000000 0.000000 9.598600 -17.487200 6.361000 
0.766610 17.082733 2.157132 -177.369564 -6.895750 -176.619602 -4.869234 -3.533278 -0.465094 -13.034313 12.888993 -18.083228 3.794081 11.650604 32.418895 -0.906390 -22.955104 -5.162208 0.464000 4.369500 12.118600 2.140489 3.703902 -2.402614 17.953325 -14.368465 -16.029415 -4.637442 -12.213606 33.045991 -0.172073 18.319850 -8.234814 -0.333400 3.710900 -10.264800 11.195916 -0.895849 -9.965642 2.941497 -3.372927 -5.152629 -2.920743 -1.897874 10.680636 0.503954 0.569458 -14.327940 -5.683815 3.007049 23.995352 -4.010700 1.213000 7.666500 -5.004036 -2.025719 2.494960 -67.503690 5.307908 52.926393 27.179195 -40.010111 -9.318882 0.266829 1.591322 -2.296474 24.205222 -19.174222 -9.006300 -7.125000 0.000000 0.000000 -2.985500 7.271400 2.587200 7.387736 3.819572 3.758473 66.688953 11.724422 3.426145 -7.430024 24.852820 -2.234153 -0.416326 -0.933293 19.899461 -13.505465 11.405313 -2.949700 7.125000 0.000000 0.000000 9.576600 -17.294800 6.387000 
0.765624 17.090168 2.148890 -177.561615 -5.789699 -176.510806 -4.855349 -3.522732 -0.473027 -13.399917 12.658689 -17.802530 3.749590 11.582664 32.151289 -0.664524 -21.687240 -6.289321 0.355800 3.832100 10.604800 2.112836 3.670401 -2.404164 17.931127 -13.553879 -15.759165 -4.618253 -12.100931 32.719853 -0.231256 18.103512 -8.868793 -0.402100 4.070900 -11.276200 11.507203 -0.745727 -9.743965 2.929348 -3.204390 -5.142486 -3.075135 -1.815365 10.571877 0.851063 0.753115 -14.143662 -5.891998 3.265714 23.816518 -4.156200 1.355600 7.620800 -4.929098 -1.983541 2.475267 -68.267227 5.809882 52.369594 25.227057 -38.351853 -8.281708 0.284490 1.551472 -1.390111 23.349933 -18.597948 -8.408100 -7.125000 0.000000 0.000000 -3.465900 8.080800 2.949900 7.326384 3.824830 3.769669 67.121430 12.483848 3.139220 -7.076001 24.503176 -2.161988 -0.436288 -0.902144 20.709083 -13.618498 11.633837 -3.020700 7.125000 0.000000 0.000000 9.505900 -17.077800 6.384300 
0.767058 17.098857 2.141187 -177.746377 -4.719928 -176.422613 -4.838428 -3.512242 -0.478215 -13.742672 12.625963 -17.590232 3.702648 11.521827 31.895273 -0.476863 -20.602597 -7.163976 0.275500 3.375900 9.327000 2.083339 3.625261 -2.403190 17.938776 -12.253369 -15.295964 -4.624304 -11.994058 32.435896 -0.332045 17.499284 -9.674710 -0.480800 4.446700 -12.336900 11.795728 -0.598560 -9.475095 2.908294 -3.020116 -5.138552 -3.247809 -1.725535 10.407322 1.215087 0.930180 -13.940375 -6.060640 3.499297 23.673383 -4.293500 1.491700 7.586500 -4.841526 -1.953455 2.449335 -69.143540 6.224299 51.395340 23.222440 -36.570205 -7.277173 0.318713 1.500404 -0.266904 22.167621 -18.079496 -7.718000 -7.125000 0.000000 0.000000 -4.178400 8.882500 3.492700 7.254757 3.843058 3.778186 67.586153 13.130103 2.928573 -6.681271 24.125636 -2.083831 -0.459454 -0.864094 21.728822 -13.782329 11.883929 -3.107900 7.125000 0.000000 0.000000 9.402300 -16.839300 6.362300 
0.770641 17.109248 2.134200 -177.911370 -3.728934 -176.354738 -4.824606 -3.499879 -0.482330 -14.045179 12.569477 -17.385650 3.663838 11.473638 31.683522 -0.309065 -19.555548 -7.970691 0.204900 2.914300 8.040200 2.049904 3.579023 -2.403212 17.980463 -10.756812 -14.735874 -4.637718 -11.890272 32.163536 -0.442153 16.712898 -10.479491 -0.546200 4.734600 -13.153300 12.047499 -0.490503 -9.191823 2.900968 -2.882058 -5.134065 -3.348299 -1.661314 10.244259 1.485760 1.104737 -13.761551 -6.213055 3.735667 23.596975 -4.402800 1.618700 7.580500 -4.748444 -1.932242 2.420437 -70.147303 6.564412 50.040586 21.256746 -34.761863 -6.353382 0.365218 1.437656 1.076993 20.731465 -17.608066 -6.974500 -7.125000 0.000000 0.000000 -5.075800 9.665600 4.168400 7.190686 3.864712 3.790673 67.977409 13.680562 2.983895 -6.342795 23.823739 -2.016828 -0.481250 -0.828524 22.772154 -13.964367 12.084739 -3.189900 7.125000 0.000000 0.000000 9.286300 -16.646000 6.321300 
0.775836 17.117221 2.128108 -178.055211 -2.823999 -176.285310 -4.811258 -3.487965 -0.486119 -14.307673 12.541085 -17.253360 3.637847 11.440765 31.539216 -0.171047 -18.613726 -8.640895 0.159200 2.570700 7.085900 2.019960 3.537039 -2.404235 18.034708 -9.245626 -14.156903 -4.651039 -11.794117 31.905048 -0.541488 15.900868 -11.195780 -0.583700 4.891900 -13.600600 12.301039 -0.384960 -8.929862 2.884970 -2.745685 -5.126656 -3.497529 -1.594814 10.101290 1.763513 1.249853 -13.558426 -6.338757 3.922269 23.498775 -4.506400 1.727700 7.550700 -4.660664 -1.913682 2.392511 -71.049005 6.823576 48.554530 19.417889 -33.009212 -5.538986 0.412878 1.356834 2.497725 19.052751 -17.106364 -6.165900 -7.125000 0.000000 0.000000 -6.143600 10.507900 4.949500 7.122359 3.880767 3.804302 68.411159 14.159642 3.156223 -6.029928 23.576032 -1.958700 -0.503246 -0.796203 23.864522 -14.184800 12.251693 -3.275500 7.125000 0.000000 0.000000 9.143800 -16.479200 6.255400 
0.784436 17.123670 2.122196 -178.164663 -2.022274 -176.230960 -4.804414 -3.483033 -0.485580 -14.499242 12.646890 -17.197485 3.621749 11.427587 31.466465 -0.064466 -17.883590 -9.224859 0.113600 2.173500 5.985400 1.990670 3.509972 -2.409407 18.106817 -8.022570 -13.638594 -4.649467 -11.700929 31.631415 -0.609563 15.310424 -11.692147 -0.598100 4.950700 -13.767900 12.523759 -0.313026 -8.671553 2.885382 -2.653388 -5.124152 -3.563014 -1.553051 9.941343 1.873853 1.384523 -13.346275 -6.399953 4.089583 23.465627 -4.547400 1.815300 7.529200 -4.574808 -1.914220 2.368080 -71.961554 7.063479 46.923575 17.711200 -31.341328 -4.828049 0.456509 1.262870 3.992767 17.234029 -16.543261 -5.336200 -7.125000 0.000000 0.000000 -7.315300 11.413500 5.771500 7.058576 3.893662 3.819238 68.802205 14.538843 3.398771 -5.750698 23.365006 -1.907042 -0.524050 -0.761706 25.014683 -14.409425 12.428203 -3.365400 7.125000 0.000000 0.000000 8.998900 -16.303300 6.188400 
0.794200 17.129224 2.116194 -178.218978 -1.299598 -176.192003 -4.800775 -3.481090 -0.487346 -14.613476 12.653871 -17.128954 3.618059 11.429550 31.454567 0.037779 -17.130921 -9.798803 0.083600 1.864500 5.131400 1.965752 3.493841 -2.418227 18.182196 -7.154752 -13.238440 -4.636533 -11.616580 31.365881 -0.633820 15.116627 -11.847613 -0.549900 4.750500 -13.198400 12.778076 -0.238118 -8.421159 2.883075 -2.564664 -5.112669 -3.657833 -1.510602 9.865872 2.064504 -0.282186 -13.144157 -6.800496 4.681577 23.010006 -4.558400 3.228400 7.379600 -4.481687 -1.901953 2.315671 -72.832008 7.178175 45.073195 16.040737 -29.673766 -4.182729 0.500184 1.151227 5.787189 15.327598 -16.028597 -4.541300 -7.125000 0.000000 0.000000 -8.563600 12.260700 6.625900 7.005765 3.905377 3.810410 69.212366 14.865298 3.766984 -5.563107 23.274366 -1.875298 -0.540873 -0.741914 26.033476 -14.625106 12.495253 -3.431700 7.125000 0.000000 0.000000 8.855800 -16.226100 6.102600 
0.805935 17.132628 2.112342 -178.238798 -0.627022 -176.139417 -4.799641 -3.480969 -0.489251 -14.670494 12.715591 -17.117227 3.618078 11.438483 31.470521 0.114645 -16.518523 -10.241393 0.067000 1.669500 4.593200 1.941461 3.471895 -2.421172 18.280805 -6.389485 -12.934473 -4.626185 -11.534699 31.119892 -0.642431 15.057430 -11.867039 -0.476800 4.428400 -12.285200 13.029501 -0.162333 -8.185114 2.887759 -2.480980 -5.104027 -3.692779 -1.466860 9.741175 1.949760 -0.190237 -12.952658 -6.745911 4.802570 22.985408 -4.504100 3.290800 7.337100 -4.404774 -1.925290 2.297507 -73.745992 7.189797 42.944573 14.297746 -27.899435 -3.568955 0.539500 1.030218 7.876564 13.534428 -15.579113 -3.847300 -7.125000 0.000000 0.000000 -9.751300 13.004200 7.417600 6.947338 3.906425 3.832120 69.564446 15.023196 4.421013 -5.528478 23.367162 -1.870108 -0.554042 -0.735992 26.817338 -14.778292 12.530136 -3.478800 7.125000 0.000000 0.000000 8.752100 -16.175300 6.039200 
0.817221 17.134957 2.109028 -178.244552 -0.005328 -176.081532 -4.802329 -3.478383 -0.488269 -14.713863 12.712249 -17.092132 3.619291 11.445616 31.484253 0.189775 -15.883668 -10.683768 0.053000 1.485600 4.086000 1.919273 3.448208 -2.417004 18.371429 -5.804005 -12.739003 -4.617845 -11.462307 30.912416 -0.638373 15.129370 -11.791663 -0.415100 4.135700 -11.458800 13.363087 -0.519360 -7.975977 2.880319 -2.306999 -5.074934 -3.673054 -1.085411 9.649540 1.772362 -0.116471 -12.801007 -6.698972 4.913417 22.972921 -4.439000 3.342700 7.301200 -4.327393 -1.948833 2.280974 -74.697833 7.064654 40.450755 12.520647 -26.063204 -3.006839 0.577781 0.897407 10.359921 11.798434 -15.277587 -3.239800 -7.125000 0.000000 0.000000 -10.913600 13.574500 8.200500 6.907605 3.909815 3.861025 69.817700 15.054815 5.445259 -5.682945 23.678851 -1.894966 -0.558934 -0.753767 27.142721 -14.792800 12.455919 -3.470700 7.125000 0.000000 0.000000 8.736100 -16.229500 6.017500 
